PathFileType	4	(X/Y/Z)	31_2_rein_62_p1_0-204_filt_butterworth.trc
DataRate	CameraRate	NumFrames	NumMarkers	Units	OrigDataRate	OrigDataStartFrame	OrigNumFrames
46.0	46.0	6	27	m	46.0	51	204
Frame#	Time	RHip			RKnee			RAnkle			RBigToe			RSmallToe			RHeel			LHip			LKnee			LAnkle			LBigToe			LSmallToe			LHeel			Neck			Head			Nose			RShoulder			RElbow			RWrist			RThumb			RIndex			RPinky			LShoulder			LElbow			LWrist			LThumb			LIndex			LPinky			
		X1	Y1	Z1	X2	Y2	Z2	X3	Y3	Z3	X4	Y4	Z4	X5	Y5	Z5	X6	Y6	Z6	X7	Y7	Z7	X8	Y8	Z8	X9	Y9	Z9	X10	Y10	Z10	X11	Y11	Z11	X12	Y12	Z12	X13	Y13	Z13	X14	Y14	Z14	X15	Y15	Z15	X16	Y16	Z16	X17	Y17	Z17	X18	Y18	Z18	X19	Y19	Z19	X20	Y20	Z20	X21	Y21	Z21	X22	Y22	Z22	X23	Y23	Z23	X24	Y24	Z24	X25	Y25	Z25	X26	Y26	Z26	X27	Y27	Z27	
51	1.108695652173913	0.19406598075360937	0.5436668092971033	0.15993302963221512	0.11986302939058054	0.7248543559966552	0.5364424272462618	0.08740906975006962	1.055502992240269	0.9144955530937408	0.07516424229792648	0.8139242587430476	1.0030960287221702	0.1263338424607563	0.8954557452904532	1.0059543259983528	0.0850985096588397	1.1283501275905428	0.9500314543926134	-0.0281424395893686	0.5681799985033844	0.1274307773238477	-0.015371741924777143	0.7294686777417385	0.5242919745079151	-0.04863886468241725	1.0324616414887127	0.887570543409347	-0.0786939626472964	0.8242118991002249	0.9811546078378175	-0.12051547219870218	0.906643700207073	0.9707662983577294	-0.028462474055851315	1.160035495878932	0.9452672029900038	0.13594788390343238	0.22756412964351624	-0.43538098725194607	0.12949981348364295	0.034312426110507964	-0.6255444743740526	0.1085539050743377	0.04000890371229523	-0.46823345702349284	0.28604299439984004	0.25704989368853104	-0.3295290531848378	0.3238742835034192	0.4228618552373877	-0.06577407564887619	0.3120265719700009	0.5039076552812491	0.20534115809403475	0.231924946136224	0.5448802469226623	0.3125874992292339	0.23566314185965992	0.5460692910825694	0.34720840337919057	0.27132256940006955	0.5852574482891663	0.34239177620537553	-0.04346820156843372	0.2768226195636953	-0.3650142571390279	-0.12168755205879425	0.49590755006572657	-0.10917581667369759	-0.155901438977279	0.5461510031013626	0.16247159347082168	-0.12654206426125228	0.5417084195419744	0.265269635578239	-0.15351732214421668	0.5273760787329869	0.28506343384995037	-0.1737450729351285	0.5844616804753872	0.26300662084801946
52	1.1304347826086956	0.19404793185192637	0.543472886866929	0.1598701294005992	0.11992986568424374	0.7250116523296651	0.5366190888314466	0.08544262928375437	1.048503577483254	0.9141641637953688	0.07490052271398254	0.8106039048083792	1.0003717562076007	0.12650703247708003	0.8955183398699469	1.006611407969047	0.08551476482636607	1.1286140593248422	0.9506648798197341	-0.028084574678666867	0.5680370774691246	0.12749691861052134	-0.017204433892500173	0.7361441425070225	0.5240156607650102	-0.048386694122784825	1.0339799621428545	0.8890138160630314	-0.07776117842535954	0.819502964982644	0.9806331419479801	-0.11921838998115673	0.9016091795269291	0.9702441224895862	-0.02818347601831014	1.1617622673142427	0.9463396718953541	0.13594316451909155	0.22846635771187276	-0.43420798002367406	0.12933209795289866	0.03499754387577265	-0.6245800717497016	0.10847805737009197	0.04061693374594424	-0.4673627508716029	0.2860834688520079	0.2574586171755868	-0.3286403129788571	0.3237263932959655	0.42342049757028327	-0.06431389207187072	0.30730063316751516	0.5012157342936657	0.20668765336778128	0.22812196287168207	0.5395965985576532	0.3140618220060202	0.23414557104307548	0.5454600775614624	0.34740439825516317	0.2710341631775055	0.5853970301537357	0.3439415744186417	-0.04341510839583777	0.27681349662765675	-0.3649913868897303	-0.12180425959735525	0.49571146960402834	-0.10911370692345723	-0.15347926868030728	0.5473241653786481	0.16385616738557843	-0.12242159579507322	0.5427370391877531	0.26599995047962016	-0.1465001152842464	0.5177233053279098	0.28986756334777175	-0.17225649055629874	0.5804416769573718	0.26512958225932515
53	1.1521739130434785	0.19406766120698257	0.5435179473739951	0.15992674247258332	0.12010096574331253	0.7254815000557858	0.5376873544321994	0.08411365386024229	1.0440016674333528	0.9151849953082234	0.07451561205646288	0.8099304645912202	0.9990034484982209	0.12650690322991104	0.8953623659675141	1.0066199156777573	0.085689390495548	1.1279619759916417	0.9503518156211396	-0.028117531594947013	0.5684008081646685	0.1284138970336223	-0.018431904637112882	0.7408402632179578	0.523837826098661	-0.048279380105427205	1.0344995445177285	0.8893067951551827	-0.07661874074620391	0.8123258107563901	0.9798296266586963	-0.11703589978093298	0.8935548905381728	0.9694453019910323	-0.02813631738636555	1.1623039575835343	0.9470134714524486	0.13593792093360302	0.2290748466362643	-0.4334030512372801	0.12928398781668404	0.03515667257073753	-0.6238227555180974	0.10844187139283588	0.04061709102175272	-0.46713744499732224	0.286061356522003	0.25803487157006816	-0.3286756913502131	0.3236625647154727	0.42360438825343355	-0.06366152464135602	0.30355740743538656	0.49558095766755045	0.20913018397924016	0.22530533600669428	0.5354177355917071	0.315538016659363	0.23377828388917046	0.5448282476900862	0.34759974011970146	0.269421355845989	0.5818271354619572	0.34517481924908694	-0.043395584329021485	0.2768027504308803	-0.364970286245229	-0.12179659954530786	0.49537507052968965	-0.10944951285774568	-0.14869423306976498	0.5419578906199288	0.1650121783559825	-0.11828877201423041	0.5423320056460773	0.2676820177293846	-0.1400104206716142	0.5126704707619599	0.29448784942273754	-0.16894865765574238	0.5708036343062112	0.26838122055968067
54	1.173913043478261	0.1941287833421842	0.544262032091318	0.1599794520591659	0.12013589065529143	0.7258057281017811	0.5393258120468867	0.08387046772594473	1.0433426093490106	0.9172766260997364	0.07349598106628893	0.8068231924727278	0.9984421734645208	0.126405142228813	0.895364648664585	1.0064541769842936	0.08551821284427533	1.1274702006874926	0.949922064783394	-0.028276313823232993	0.569276656848233	0.12982299428423122	-0.018664243433950206	0.7421972973040679	0.5237891657184897	-0.04832820880329312	1.034293614628792	0.8891866782967799	-0.07596098453951883	0.8075733357717256	0.9792260849577292	-0.11541328948659314	0.8876784144018984	0.9688122912159224	-0.028361066697896956	1.1624547359876585	0.9485174125365927	0.13595339783381213	0.22914111471999055	-0.43327626846856726	0.1293141186607211	0.03471326574132394	-0.6236216864768861	0.10837622060963303	0.040486344908750554	-0.4671941992147671	0.2861961262750637	0.2573934999136166	-0.32865716451456745	0.3235659969263956	0.4238103060379324	-0.06318562666400916	0.30104045334991336	0.4893047359484918	0.21110679342348662	0.22368270434358578	0.532006498922991	0.31668556657987645	0.23302250906973743	0.5416508273795491	0.3478345650203941	0.2670254991386237	0.5754118018637513	0.34568000746154814	-0.04340335468284997	0.2767723842062818	-0.36500322025671467	-0.12182133514037226	0.49561141938724107	-0.10932126587619165	-0.14292628152942116	0.5276120840984526	0.16750651522629958	-0.11524220378679403	0.5397129143773038	0.27002031860529474	-0.13630972030379335	0.5116230544406654	0.29752495508815746	-0.1637384263586371	0.5603187047991876	0.27222054268548423
55	1.1956521739130437	0.19424174907428787	0.5447621893379514	0.16013345317149305	0.11976693783531407	0.725932405332039	0.5404500719634941	0.08405460243142686	1.0439787208898978	0.9183782698439833	0.07193810295162678	0.8012076594568706	0.9978193133908493	0.12618729206352414	0.8952207236102877	1.0063447808126722	0.08524482604767378	1.127342093066577	0.9497760482140074	-0.028088898563176028	0.5689180037184626	0.13129900308187953	-0.01852405050067906	0.741049609317835	0.5237666705780298	-0.04850891777750542	1.0336366606637188	0.8891183366442903	-0.07609120290914584	0.8069145788792305	0.9790578555942191	-0.11533351038285952	0.8875186623954446	0.9683696085201985	-0.028831888527194333	1.162770689747129	0.9500964027736183	0.1359716617075569	0.22897231481691796	-0.4334283642523974	0.1290370677165823	0.035312400877513736	-0.6237186944617774	0.108332527920128	0.04044081187659266	-0.4672096970605084	0.28685941025099554	0.2538116970964185	-0.3272490270934809	0.32346186121135934	0.4247160167544232	-0.061691645533839046	0.2989129391899972	0.4834210757320543	0.21201478459063688	0.22195470417473298	0.5272343103085748	0.3180888365731565	0.23127373629033054	0.5370767772417576	0.3480784993734164	0.2650279689034152	0.5704920734330251	0.3453584718570162	-0.04341697391926223	0.2767119973158175	-0.3650906689367656	-0.1220518062622882	0.49644314111156107	-0.10829938604084148	-0.13774290538919273	0.5117221252875007	0.17108852276714281	-0.11382949778124685	0.5408430363849891	0.2717884398755215	-0.13453537958115314	0.5158780257331124	0.29917863924725585	-0.15674836966527828	0.5551250979393632	0.276398727996419
56	1.2173913043478262	0.19423311288270925	0.5414366066714805	0.1609196750644263	0.1192468905075855	0.7266629861247639	0.5406885701098393	0.08418450421998228	1.0441604672206266	0.9172804471928402	0.0708418079520491	0.7966342943315805	0.9972805873227998	0.12637964014403966	0.8949030727148692	1.0064610804283003	0.08508453265600041	1.1275272437180872	0.9493646546156356	-0.02690040314273001	0.5650797725848299	0.13347461477864614	-0.018443919119599535	0.7364469078695204	0.523821358554062	-0.04838342308290264	1.0342335710735115	0.8891917734064245	-0.07725150527371394	0.8080715889272425	0.9790777654511976	-0.11686138467492671	0.8931747818753941	0.9680521087194637	-0.028841756840775303	1.1638159826749441	0.9490519764291167	0.13597352970347953	0.22905591659214275	-0.43335482981608847	0.12846247869185257	0.038994118433722295	-0.6239005793284838	0.10835024596007838	0.04041975690370342	-0.467000852324991	0.2878440055767289	0.2487285225098485	-0.32443008143076146	0.3234414012382727	0.4260947360995142	-0.05960124330844826	0.2961499978531805	0.4765606584201613	0.21266177214120877	0.21934064518425936	0.5200281819642018	0.32060355323531453	0.22812667800325476	0.5322106586434655	0.34867354769547465	0.2630378692735721	0.5688125733393585	0.34427899093606024	-0.04343774092002289	0.27681082170554616	-0.36489350475342763	-0.12202984717143699	0.4960452960302545	-0.10677405713002952	-0.13200836010315145	0.5039174044075116	0.17426494652588245	-0.11171263573725138	0.5461332337317879	0.2730771412953656	-0.1305429232100359	0.5274455605275862	0.3018269841519869	-0.14824816373010163	0.5552564430042873	0.28074507449343944
